<?xml version="1.0" encoding="UTF-8" standalone="no"?>
<!-- Created with Inkscape (http://www.inkscape.org/) -->

<svg
   width="11cm"
   height="2cm"
   viewBox="0 0 110 20.000001"
   version="1.1"
   id="svg1"
   inkscape:version="1.3.2 (091e20e, 2023-11-25, custom)"
   sodipodi:docname="logotu.svg"
   xml:space="preserve"
   xmlns:inkscape="http://www.inkscape.org/namespaces/inkscape"
   xmlns:sodipodi="http://sodipodi.sourceforge.net/DTD/sodipodi-0.dtd"
   xmlns="http://www.w3.org/2000/svg"
   xmlns:svg="http://www.w3.org/2000/svg"><sodipodi:namedview
     id="namedview1"
     pagecolor="#ffffff"
     bordercolor="#000000"
     borderopacity="0.25"
     inkscape:showpageshadow="2"
     inkscape:pageopacity="0.0"
     inkscape:pagecheckerboard="0"
     inkscape:deskcolor="#d1d1d1"
     inkscape:document-units="mm"
     inkscape:zoom="3.0680976"
     inkscape:cx="201.10181"
     inkscape:cy="126.29976"
     inkscape:window-width="1920"
     inkscape:window-height="1057"
     inkscape:window-x="-8"
     inkscape:window-y="-8"
     inkscape:window-maximized="1"
     inkscape:current-layer="layer1" /><defs
     id="defs1"><style
       id="style1">.cls-1{fill:none;}.cls-2{fill:#1b5cf3;}.cls-3{fill:#f92115;}.cls-4{fill:#190d15;}</style></defs><g
     inkscape:label="Capa 1"
     inkscape:groupmode="layer"
     id="layer1"><text
       xml:space="preserve"
       style="font-style:normal;font-variant:normal;font-weight:900;font-stretch:normal;font-size:11.2889px;font-family:Arial;-inkscape-font-specification:'Arial, Heavy';font-variant-ligatures:normal;font-variant-caps:small-caps;font-variant-numeric:normal;font-variant-east-asian:normal;fill:#f92115;stroke-width:0.264583"
       x="2.0696859"
       y="14.142857"
       id="text1"><tspan
         sodipodi:role="line"
         id="tspan1"
         style="font-style:normal;font-variant:normal;font-weight:900;font-stretch:normal;font-size:11.2889px;font-family:Arial;-inkscape-font-specification:'Arial, Heavy';font-variant-ligatures:normal;font-variant-caps:small-caps;font-variant-numeric:normal;font-variant-east-asian:normal;stroke-width:0.264583"
         x="2.0696859"
         y="14.142857"><tspan
           style="font-style:normal;font-variant:normal;font-weight:900;font-stretch:normal;font-size:11.2889px;font-family:Arial;-inkscape-font-specification:'Arial, Heavy';font-variant-ligatures:normal;font-variant-caps:small-caps;font-variant-numeric:normal;font-variant-east-asian:normal;fill:#2b1100"
           id="tspan2">COCINATE    </tspan><tspan
           style="font-style:normal;font-variant:normal;font-weight:900;font-stretch:normal;font-size:11.2889px;font-family:Arial;-inkscape-font-specification:'Arial, Heavy';font-variant-ligatures:normal;font-variant-caps:small-caps;font-variant-numeric:normal;font-variant-east-asian:normal;fill:#2b1100;fill-opacity:1"
           id="tspan3">TU</tspan></tspan></text><g
       data-name="Layer 1"
       id="Layer_1-2"
       transform="matrix(0.70870354,0,0,0.70870354,67.292321,1.4504214)"><path
         class="cls-2"
         d="m 1,6.5 h 18 v 4.38 a 7,7 0 0 1 -7,7 H 8 a 7,7 0 0 1 -7,-7 z"
         id="path1"
         style="fill:#cf3cb3;fill-opacity:1"
         transform="translate(-1.5874057e-6)" /><rect
         class="cls-1"
         height="20"
         width="20"
         id="rect1"
         x="0"
         y="0" /><path
         class="cls-3"
         d="M 5,10 H 3 A 3.35,3.35 0 0 1 3.67,8 1.41,1.41 0 0 0 4,7 1.41,1.41 0 0 0 3.67,6.05 3.4,3.4 0 0 1 3,4 3.35,3.35 0 0 1 3.67,2 1.41,1.41 0 0 0 4,1 H 6 A 3.41,3.41 0 0 1 5.34,3.06 1.42,1.42 0 0 0 5,4 1.43,1.43 0 0 0 5.34,5 3.36,3.36 0 0 1 6,7 3.41,3.41 0 0 1 5.34,9.06 1.42,1.42 0 0 0 5,10 Z"
         id="path2"
         style="fill:#2b1100;fill-opacity:1" /><path
         class="cls-3"
         d="M 9,10 H 7 A 3.35,3.35 0 0 1 7.67,8 1.41,1.41 0 0 0 8,7 1.41,1.41 0 0 0 7.67,6.05 3.4,3.4 0 0 1 7,4 3.35,3.35 0 0 1 7.67,2 1.41,1.41 0 0 0 8,1 h 2 A 3.41,3.41 0 0 1 9.34,3.06 1.42,1.42 0 0 0 9,4 1.43,1.43 0 0 0 9.34,5 3.36,3.36 0 0 1 10,7 3.41,3.41 0 0 1 9.34,9.06 1.42,1.42 0 0 0 9,10 Z"
         id="path3"
         style="fill:#2b1100;fill-opacity:1" /><path
         class="cls-4"
         d="M 8,7 A 1.41,1.41 0 0 1 7.67,8 3.35,3.35 0 0 0 7,10 H 9 A 1.42,1.42 0 0 1 9.34,9.05 3.41,3.41 0 0 0 10,7 4.22,4.22 0 0 0 10,6.48 H 8 A 1.26,1.26 0 0 1 8,7 Z"
         id="path4"
         style="fill:#924d7c;fill-opacity:1" /><path
         class="cls-4"
         d="M 4,7 A 1.41,1.41 0 0 1 3.67,8 3.35,3.35 0 0 0 3,10 H 5 A 1.42,1.42 0 0 1 5.34,9.05 3.41,3.41 0 0 0 6,7 4.22,4.22 0 0 0 6,6.5 H 4 A 1.26,1.26 0 0 1 4,7 Z"
         id="path5"
         style="fill:#7d4169;fill-opacity:1" /></g></g></svg>
